<?xml version="1.0" encoding="UTF-8" standalone="no"?>
<!DOCTYPE svg PUBLIC "-//W3C//DTD SVG 1.1//EN" "http://www.w3.org/Graphics/SVG/1.1/DTD/svg11.dtd">
<svg width="100%" height="100%" viewBox="0 0 31 32" version="1.1" xmlns="http://www.w3.org/2000/svg" xmlns:xlink="http://www.w3.org/1999/xlink" xml:space="preserve" xmlns:serif="http://www.serif.com/" style="fill-rule:evenodd;clip-rule:evenodd;stroke-linejoin:round;stroke-miterlimit:2;">
    <g transform="matrix(0.971503,0,0,0.967742,-0.0315026,0.00409162)">
        <path d="M31.88,8.75L31.88,24.25C31.88,28.527 28.421,32 24.16,32L8.72,32C4.459,32 1,28.527 1,24.25L1,8.75C1,4.473 4.459,1 8.72,1L24.16,1C28.421,1 31.88,4.473 31.88,8.75Z" style="fill:rgb(184,184,184);"/>
    </g>
    <g transform="matrix(-0.0469594,0,0,0.0469594,39.0447,-7.48365)">
        <path d="M811.439,637.954C800.263,651.474 787.532,663.701 773.49,674.23C763.98,681.6 753.69,687.87 743.54,694.29C751.51,684.31 757.34,672.79 761.86,660.89C773.74,629.22 776.29,594.08 768.98,561.05C764.36,539.84 757.29,519.16 747.88,499.59C750.23,497.97 752.66,495.95 753.21,492.97C754.68,488.29 753.18,483.47 752.59,478.78C755.26,483.5 757.22,488.96 761.78,492.27C764.44,494.44 768.28,494.84 771.44,493.61C775.38,491.73 777.36,487.21 777.28,483.01C777.54,474.07 772.76,466.19 770.11,457.93C776.23,456.16 781.57,452.49 786.3,448.3C799.18,436.86 805.26,419.8 807.74,403.16C808.59,393.86 808.64,383.77 803.58,375.54C801.34,371.94 797.66,368.33 793.08,368.73C789.14,369.01 786.46,372.26 783.72,374.71C775.25,382.71 764.88,388.3 754.5,393.4C756.2,390.23 757.78,386.79 757.69,383.1C757.13,375.79 752.44,368.62 745.28,366.31C744.93,359.54 744.97,352.75 744.46,345.98C753.37,342 762.46,338.43 771.41,334.53C775.28,332.8 779.47,331.52 782.82,328.84C786.88,325.56 787.46,318.86 783.93,315.01C781.28,311.88 777.13,310.89 773.55,309.28C729.16,290.46 684.62,272 639.85,254.11C602.63,239.06 564.84,225.49 527.61,210.47C521.69,207.99 514.87,208.41 509.1,211.1C488.14,219.59 466.73,226.9 445.41,234.41C391.07,253.87 337.07,274.24 283.31,295.24C279.68,296.75 275.77,298.08 272.99,300.98C269.94,304.09 269.55,309.39 272.12,312.9C275.52,317.94 281.65,319.74 286.99,321.96C303.99,328.34 320.58,335.76 337.34,342.73C355.64,350.09 373.7,358.03 392.03,365.32C390.14,376.95 388.33,388.59 386.67,400.25C363.46,395.83 340.46,389.68 318.77,380.2C304.54,373.79 290.44,366.66 278.34,356.68C273.74,353.25 269.55,348.84 263.86,347.27C260.44,346.16 256.81,348.11 254.92,350.96C251.41,356.07 249.77,362.17 248.34,368.13C244.84,383.53 247.12,399.86 253.6,414.17C261.37,432.52 276.99,446.77 294.76,455.29C280.77,470.39 269.62,487.91 260.12,506.12C250.46,525.61 242.52,546.16 238.57,567.62C209.85,527.71 191.54,480.14 187.34,431.08C186.76,422.06 187.26,412.41 182.9,404.18C180.863,400.177 176.905,397.59 172.589,396.712L172.589,659.197C172.589,747.345 244.154,818.91 332.302,818.91L651.727,818.91C739.874,818.91 811.439,747.345 811.439,659.197L811.439,637.954ZM660.01,377.95C682.01,369.75 704.03,361.58 725.87,352.96C725.86,357.46 725.98,361.96 726.03,366.47C721.59,368.8 717.71,372.67 716.73,377.74C714.8,384.94 718.32,392.77 724.65,396.53C723.61,398.9 722.59,401.27 721.59,403.66C711.57,407.86 700.64,408.8 689.95,409.99C680.7,410.89 671.44,411.97 662.14,412.16C661.59,400.75 660.68,389.35 660.01,377.95Z" style="fill:rgb(0,16,73);"/>
    </g>
    <g transform="matrix(-0.0469594,0,0,0.0469594,39.0447,-7.48365)">
        <path d="M488.32,237.44C498.52,233.64 508.91,230.41 519.07,226.5C540.68,234.05 562.03,242.33 583.34,250.69C600.74,257.06 617.81,264.27 635.09,270.95C648.96,276.39 662.86,281.78 676.61,287.52C699.33,296.66 722.09,305.71 744.61,315.35C748.93,317.26 753.44,318.84 757.42,321.45C741.08,327.78 724.74,334.09 708.38,340.37C691.82,346.82 675.48,353.84 658.69,359.64C658.09,354.65 658.07,349.61 657.44,344.63C657.3,341.96 654.88,340.44 653.02,338.93C640.7,329.78 626.66,323.34 612.62,317.34C592.6,309.38 571.38,304.74 550.04,302.13C524.99,299.54 499.65,299.41 474.64,302.52C456.12,304.17 438.12,309.37 420.74,315.78C413.38,318.65 406.36,322.41 399.93,327C398.25,328.37 396.01,329.64 395.75,332.02C394.75,337.01 394.4,342.11 393.85,347.16C383.19,343.54 373.06,338.6 362.64,334.38C340.89,325.49 319.09,316.72 297.49,307.47C303.65,304.21 310.46,302.49 316.9,299.88C356.63,284.67 396.74,270.49 436.62,255.69C453.82,249.52 471.27,244.04 488.32,237.44ZM448.9,328.82C467.17,323.82 486.06,320.78 505.04,320.99C527.88,320.95 550.91,322.83 572.97,329.06C597.19,335.47 620.03,346.51 640.96,360.17C641.78,377.28 643.09,394.39 643.12,411.53C624.07,410.13 604.86,411.01 586,414C558.13,418.56 531.39,430.57 509.83,448.87C498.79,439.21 487.79,429.25 474.81,422.2C453.49,410.1 429.18,404.14 404.92,401.91C408.3,382.21 410.91,362.37 413.62,342.6C424.63,336.33 436.81,332.45 448.9,328.82Z" style="fill:rgb(68,113,188);"/>
    </g>
    <g transform="matrix(-0.0469594,0,0,0.0469594,39.0447,-7.48365)">
        <path d="M619.858,818.91C617.191,808.234 616.973,796.878 618.19,786.01C620.74,771.76 628.47,758.84 638.46,748.51C644.98,741.4 652.73,735.09 661.94,731.86C668.49,729.54 675.08,727.27 681.36,724.28C690.94,719.67 699.73,713.59 708.19,707.2C719.11,698.06 728.56,687.12 736.05,675.01C745.54,658.61 751.92,640.36 754.38,621.55C756.33,605.44 756.66,589.06 754.11,572.99C751.39,552.45 743.68,533.08 735.92,514.02C733.16,507.21 729.93,500.61 727.05,493.86C724.87,489.01 724.28,483.68 722.58,478.68C722.51,482.19 722.88,485.89 721.31,489.16C719.87,492.43 716.83,495.48 713.02,495.33C708.11,495.44 704.27,491.01 703.42,486.47C701.61,477.95 703.82,469.26 706.16,461.07C709.94,448.56 712.97,435.83 716,423.12C702.84,426.25 689.33,427.43 675.89,428.58C651.66,430.7 627.25,429.54 603.07,432.28C587.43,434.35 571.81,437.39 557.11,443.25C538.88,450.12 522.5,461.01 507.29,473.03C501.78,465.21 494.63,458.8 487.51,452.51C475.09,441.8 460.1,434.58 444.65,429.39C426.03,423 406.38,420.9 387.01,417.99C366.17,414.36 345.69,408.69 325.94,401.09C304.8,393.11 284.02,383.03 267,367.93C265.67,374.8 264.4,381.87 265.59,388.86C267.46,399.86 271.4,410.74 278.47,419.51C283.33,425.58 288.69,431.37 295.02,435.95C303.31,441.59 312.65,445.6 322.34,448.13C312.19,461.65 300.61,474.03 290.8,487.81C281,502.05 272.97,517.48 266.64,533.56C259.84,551.28 254.62,569.83 253.77,588.89C252.25,604.01 254.36,619.29 258.16,633.94C262.06,649.35 268.57,664.18 277.79,677.17C288.35,690.71 300.97,702.74 315.38,712.12C309.28,732.23 304.64,752.93 303.91,773.99C303.466,788.321 304.381,802.707 306.688,816.863C315.028,818.21 323.584,818.91 332.302,818.91L619.858,818.91ZM365.82,451.7C381.01,447.06 397.39,445.08 412.99,448.86C429.49,452.31 444.38,461.99 454.83,475.13C459.8,481.72 464.48,488.59 468.09,496.03C476.9,515.02 480.92,535.73 484.33,556.25C490.96,541.12 500.44,527.52 510.29,514.35C522.09,499.56 535.39,485.68 551.42,475.44C564.81,466.76 580.11,460.87 596.01,459.06C615.47,456.37 635.59,460.78 652.8,470.06C679.03,484.04 698.16,508.87 709.01,536.17C717.1,555.72 720.41,576.95 720.92,598.02C720.61,616.22 717.98,634.41 712.85,651.89C707.49,670.14 697.46,686.78 684.99,701.04C674.55,711.9 662.39,721.11 649.11,728.24C635.44,736.14 620.09,740.65 604.63,743.43C554.5,751.88 500.64,740.77 459.33,710.7C456.89,708.8 453.56,708.68 450.75,709.74C436.44,714.96 421.23,717.28 406.05,717.91C387.7,719.07 369.26,716.01 351.91,710.11C336.98,704.57 322.43,697.28 310.49,686.6C296.74,674.66 286.65,658.63 281.66,641.12C274.89,617.79 274.05,592.8 278.59,568.96C282.31,550.72 287.31,532.53 295.94,515.94C302.73,502.97 310.74,490.46 321.14,480.07C333.59,467.37 348.92,457.37 365.82,451.7Z" style="fill:rgb(58,74,136);"/>
    </g>
    <g transform="matrix(-0.0469594,0,0,0.0469594,39.0447,-7.48365)">
        <path d="M757.82,409.96C769.41,405.4 779.99,398.78 790.21,391.73C790.76,400.28 788.41,408.69 785.45,416.62C781.57,426.67 775.29,436.28 765.74,441.73C763.17,431.12 760.38,420.57 757.82,409.96Z" style="fill:rgb(58,74,136);fill-rule:nonzero;"/>
    </g>
    <g transform="matrix(-0.0469594,0,0,0.0469594,39.0447,-7.48365)">
        <path d="M172.589,613.663C179.001,615.156 184.929,618.792 190.4,622.36C188.05,619.29 185.81,616.06 184.54,612.38C180.66,602.23 178.52,590.68 182.23,580.16C185.34,570.75 194.11,563.23 204.14,562.64C209.06,562.08 213.81,563.82 218.22,565.81C204.9,545.6 193.8,523.87 186.03,500.93C179.853,481.332 175.224,461.208 172.589,440.824L172.589,613.663Z" style="fill:rgb(58,74,136);"/>
    </g>
    <g transform="matrix(-0.0469594,0,0,0.0469594,39.0447,-7.48365)">
        <path d="M486.97,655.17C492.9,654.19 498.72,652.68 504.41,650.76C500.36,664.95 492.54,678.64 480.47,687.46C475.3,690.88 469.39,694.47 462.94,693.7C455.56,692.72 448.16,690.22 442.52,685.21C446.32,684.9 450.14,684.22 453.57,682.47C465.76,676.65 474.84,666.35 485.4,658.22C486.53,657.59 486.75,656.31 486.97,655.17Z" style="fill:rgb(58,74,136);fill-rule:nonzero;"/>
    </g>
    <g transform="matrix(-0.0469594,0,0,0.0469594,39.0447,-7.48365)">
        <path d="M385.02,463.94C399.35,461.43 414.63,464.22 427.02,471.89C439.77,479.63 449.51,491.69 456.1,504.95C460.49,513.65 464.03,522.77 466.95,532.06C470.85,544.63 474.62,557.25 477.52,570.1C478.06,572.24 479.07,575.33 481.68,575.51C484.27,574.73 485.58,572.08 486.99,569.99C495.94,554.1 506.4,539.07 518.24,525.2C531.4,509.67 546.23,494.98 564.44,485.48C577.75,478.3 592.8,474.09 607.99,474.34C622.81,474.4 637.54,478.89 650.02,486.87C666.18,496.87 678.58,512.05 687.51,528.66C705.36,562 709.14,602 700.4,638.59C695.48,658.36 685.96,677.11 672.1,692.12C649.55,716.42 616.65,729.25 583.93,731.1C547.15,733.02 509.18,725.16 477.79,705.41C491.12,699.36 501.36,688.02 508.64,675.56C514.67,664.94 519.02,653.19 520.28,640.99C520.78,637.61 517.94,635.25 515.74,633.21C509.49,627.81 501.81,624.02 496.7,617.36C490.99,610.02 491.55,599.7 485.66,592.47C481.65,587.38 475.26,584.79 468.99,583.95C461.36,582.81 453.65,584.2 446.28,586.17C450.74,569.01 451.33,550.75 447.48,533.43C443.85,518.72 435.16,504.9 422.54,496.31C410.66,488.32 394.86,487.76 381.66,492.65C367.67,497.95 356.23,508.57 348.13,520.98C337.57,537.28 331.85,556.61 331.41,576C331.61,590.86 334.69,606.23 343.25,618.65C350.32,629.18 361.09,637.84 373.82,640.09C382.82,641.93 392.12,640.19 400.72,637.35C399.48,646.7 399.8,656.56 403.47,665.36C404.9,668.37 407.09,672.32 410.95,672.11C413.69,672.19 414.99,669.32 416.42,667.46C420.35,661.19 425.8,655.37 433.02,653.04C437.02,651.71 441.28,652.38 445.36,652.93C443.65,660.72 441.23,668.38 437.77,675.58C435.48,673.74 433.56,671.38 430.96,669.99C428.03,669.1 426.86,672.75 426.87,675C426.48,684.37 432.04,692.87 438.92,698.78C418,703.62 396,705.39 374.87,700.74C358.23,697.34 342.34,690.29 328.62,680.29C312.85,668.81 301.4,651.76 296.21,632.99C291.13,616.75 291.21,599.45 292.8,582.67C294.77,562.5 300.85,542.86 309.71,524.68C317.52,508.8 328.49,494.37 342.35,483.29C354.66,473.44 369.3,466.12 385.02,463.94M583.44,504.63C563.18,508.38 547.24,523.98 537.34,541.36C527.99,557.36 522.38,575.52 521,594C519.89,611.98 524.13,630.97 535.84,645.05C545.93,657 561.04,665.62 577,665.08C592.89,665.51 608.42,658.58 619.88,647.78C630.28,638.57 637.41,626.25 642.44,613.44C649.76,593.63 651.68,571.52 646.11,551.03C641.93,536.19 633.76,521.95 621.08,512.81C610.41,504.9 596.41,502.18 583.44,504.63Z" style="fill:rgb(29,134,221);fill-rule:nonzero;"/>
    </g>
    <g transform="matrix(-0.0469594,0,0,0.0469594,39.0447,-7.48365)">
        <path d="M429.96,608.8C438.33,601.73 448.91,596.97 460,596.97C465.08,596.95 471.19,597.13 474.77,601.3C477.83,605.73 477.89,611.38 479.93,616.26C483.18,625.35 490.17,632.32 497.15,638.68C490.24,640.53 483.27,642.48 476.06,642.56C467.34,642.6 458.6,641.75 450.1,639.78C445.46,638.94 440.8,637.47 436.04,637.84C427.19,639.37 419.42,644.8 413.86,651.72C411.74,636 417.59,618.99 429.96,608.8Z" style="fill:rgb(114,200,255);fill-rule:nonzero;"/>
    </g>
    <g transform="matrix(-0.0469594,0,0,0.0469594,39.0447,-7.48365)">
        <path d="M386.98,504.87C395.94,501.73 406.46,502.19 414.54,507.46C422.56,512.59 427.86,520.84 431.99,529.21C427.08,524.18 420.22,520.4 412.98,521.51C398.04,523.44 385.89,536.44 382.89,550.88C387.78,557.01 393.99,562.07 399.34,567.84C391.49,569.44 383.63,571.01 375.71,572.19C374.03,583.45 373.75,595.16 376.82,606.21C378.64,612.47 381.91,618.84 387.78,622.18C390.54,623.88 393.83,624.09 396.95,624.64C387.98,628.16 377.33,628.93 368.56,624.44C359.02,619.01 352.64,609.31 349.15,599.1C345.43,588.47 345.38,576.99 346.44,565.91C347.96,549.82 355.04,534.65 364.88,521.98C370.74,514.66 378.01,508.05 386.98,504.87ZM579.16,520.2C589.67,516.48 602.17,516.91 611.58,523.32C621.32,529.82 628.03,539.91 633.08,550.29C628.5,546 624.28,541.08 618.37,538.57C609.87,534.32 599.4,536.53 592.05,542.12C583.37,548.34 577.37,558.18 575.71,568.72C582.03,574.38 587.82,580.63 594.09,586.36C585.78,588.13 577.52,590.09 569.3,592.2C568.15,605.31 567.6,619.22 573.77,631.28C578.15,640.5 587.52,646.8 597.72,647.39C585.49,652.2 570.81,653.92 558.99,647.09C548.49,640.68 540.54,630.06 537.58,618.09C530.96,593.73 537.01,567.32 550.53,546.42C557.31,535.24 566.62,524.84 579.16,520.2Z" style="fill:rgb(255,243,218);"/>
    </g>
</svg>
